<svg class="svg-icon" style="width: 1em; height: 1em;vertical-align: middle;fill: currentColor;overflow: hidden;" viewBox="0 0 1024 1024" version="1.1" xmlns="http://www.w3.org/2000/svg"><path d="M723.43 508.6c-54.123 47.75-125.977 77.056-205.163 77.056-80.364 0-153.4-30.259-207.765-79.421C184.05 539.325 105.81 652.308 105.81 787.277v68.782c0 160.968 812.39 160.968 812.39 0v-68.782c-0.005-131.415-74.22-242.509-194.77-278.677z m-205.163 28.13c140.165 0 254.095-109.44 254.095-244.64S658.668 47.218 518.267 47.218c-139.93 0-253.855 109.675-253.855 244.874 0 135.204 113.925 244.639 253.855 244.639z m0 0"  /></svg>