<?xml version="1.0" encoding="utf-8"?>
<!-- Svg Vector Icons : http://www.onlinewebfonts.com/icon -->
<!DOCTYPE svg PUBLIC "-//W3C//DTD SVG 1.1//EN" "http://www.w3.org/Graphics/SVG/1.1/DTD/svg11.dtd">
<svg version="1.1" xmlns="http://www.w3.org/2000/svg" xmlns:xlink="http://www.w3.org/1999/xlink" x="0px" y="0px" viewBox="0 0 256 256" enable-background="new 0 0 256 256" xml:space="preserve">
<metadata> Svg Vector Icons : http://www.onlinewebfonts.com/icon </metadata>
<g><g><path fill="#000000" d="M145,11.8c0.1,0,0.2,0.1,0.2,0.2l4.3,29.1l0.5,3.3l3.1,1c4.8,1.6,9.1,3.4,13,5.5l3.1,1.6l2.8-2.1l21.8-16.9l0.3-0.2l0.1,0c0.1,0,0.2,0.1,0.3,0.2l2.5,2.4c7.4,7,16.5,15.7,22,23.6l0.1,0.1c0,0,0,0.1,0,0.3c0,0.1,0,0.2-0.2,0.5c-2.4,3.3-4.9,6.6-7.3,9.8c-2.9,3.8-6,7.8-8.9,12l-1.9,2.7l1.5,2.9c2.5,4.9,4.5,9.8,5.9,14.6l1,3.2l3.3,0.5l27.9,4.4c0.1,0.1,0.1,0.2,0.1,0.4v35.1c0,0.1-0.1,0.4-0.2,0.5l-27.9,4.4l-3.2,0.5l-1,3.1c-1.9,5.6-3.6,9.8-5.6,13.6l-1.5,2.9l1.8,2.7c5.5,8.1,11.4,15.6,16.8,22.3c0.2,0.2,0.3,0.5,0.3,0.5c0,0,0,0.1-0.2,0.2l-0.1,0.1l-0.1,0.1c-4.4,6-20.6,23.4-25.6,26c-0.1-0.1-0.3-0.2-0.6-0.3l-21-16.9l-2.8-2.2l-3.1,1.7c-4.3,2.3-8.7,4.2-13.1,5.7l-3.3,1.1l-0.4,3.4l-0.4,3.5c-0.9,8.5-1.9,17.2-3.9,25.2c-0.1,0.3-0.2,0.3-0.3,0.3h-34.1c-0.1,0-0.2-0.1-0.2-0.2l-4.3-29.1l-0.5-3.3l-3.1-1c-4.8-1.6-9-3.4-13-5.5l-3.1-1.6l-2.8,2.2l-21.7,16.9l-0.1,0.1l-0.1,0.1c0,0-0.1,0-0.2,0.1c0,0-0.1-0.1-0.1-0.1l-0.1-0.1l-0.1-0.1l-1.5-1.4c-7.7-7.2-17.4-16.2-23.1-24.3c-0.1-0.2-0.1-0.4-0.1-0.6c0-0.1,0-0.2,0.2-0.5c2.4-3.3,4.9-6.6,7.3-9.8c2.9-3.8,6-7.8,8.9-11.9l1.9-2.7l-1.5-2.9c-2.6-5-4.5-9.9-5.9-14.7l-0.9-3.3l-3.4-0.5l-27.9-4.2c-0.1-0.1-0.1-0.2-0.1-0.4v-35.1c0-0.1,0.1-0.4,0.2-0.5l27.9-4.3l3.3-0.5l1-3.2c1.4-4.5,3.2-9,5.6-13.6l1.5-2.9l-1.8-2.7c-5.6-8.1-11.6-15.8-16.7-22.2c-0.1-0.1-0.2-0.3-0.2-0.3c0-0.1,0.2-0.3,0.3-0.6c4-5.6,20.4-23.2,25.5-25.9c0.1,0.1,0.2,0.1,0.4,0.3l21.2,16.9l2.8,2.2l3.1-1.7c4.2-2.2,8.7-4.2,13.1-5.7l3.2-1.1l0.4-3.4l0.4-3.5c0.9-8.4,1.9-17.2,3.9-25.2c0.1-0.3,0.2-0.3,0.3-0.3L145,11.8 M128,161.9c18.7,0,34-15.2,34-34c0-18.7-15.2-34-34-34s-34,15.2-34,34C94,146.7,109.3,161.9,128,161.9 M145,6.4h-34.1c-2.8,0-4.9,1.9-5.5,4.4c-2.5,9.5-3.4,19.8-4.5,29.4c-4.8,1.6-9.5,3.6-14,6L65.7,29.4c-1.2-0.9-2.6-1.6-4-1.6c-5.2,0-26,23.1-29.6,28.3c-0.8,1.1-1.4,2.2-1.4,3.6c0,1.4,0.6,2.7,1.5,3.8c5.7,7.1,11.2,14.2,16.4,21.9c-2.5,4.7-4.5,9.5-6,14.6l-28.6,4.4c-2.3,0.5-4.1,3.3-4.1,5.7v35.1c0,2.7,1.8,5.2,4.5,5.7l28.1,4.3c1.5,5.4,3.7,10.6,6.3,15.7c-5.2,7.4-10.9,14.4-16.1,21.7c-0.8,1.1-1.2,2.2-1.2,3.6c0,1.3,0.3,2.5,1.1,3.6c6.5,9.2,17.2,19,25.4,26.6c1.1,1.1,2.5,1.7,3.8,1.7c1.4,0,2.8-0.5,3.8-1.4l21.7-16.9c4.4,2.4,9.1,4.3,13.8,5.9l4.3,29.2c0.3,2.7,2.8,4.7,5.5,4.7h34.1c2.8,0,4.9-1.9,5.5-4.4c2.5-9.5,3.4-19.8,4.5-29.4c4.8-1.6,9.5-3.6,14-6l21.2,17.1c1.2,0.8,2.6,1.4,4,1.4c5.2,0,26-23.3,29.6-28.3c0.9-1.1,1.4-2.2,1.4-3.6c0-1.4-0.6-2.9-1.5-3.9c-5.7-7.1-11.2-14.1-16.4-21.8c2.5-4.6,4.3-9.3,6-14.4l28.4-4.4c2.5-0.5,4.3-3.3,4.3-5.7v-35.1c0-2.7-1.8-5.2-4.5-5.7l-28.1-4.4c-1.5-5.2-3.7-10.4-6.3-15.5c5.2-7.4,10.9-14.4,16.1-21.7c0.8-1.1,1.2-2.2,1.2-3.6c0-1.3-0.3-2.5-1.1-3.5c-6.5-9.3-17.2-19.2-25.4-26.9c-1.1-0.9-2.5-1.6-3.8-1.6c-1.4,0-2.8,0.5-3.7,1.4l-21.8,16.9c-4.5-2.4-9.1-4.3-13.8-5.9l-4.3-29.1C150.3,8.5,147.8,6.4,145,6.4L145,6.4z M128,156.6c-15.8,0-28.6-12.9-28.6-28.6c0-15.8,12.9-28.6,28.6-28.6s28.6,12.9,28.6,28.6C156.6,143.7,143.7,156.6,128,156.6L128,156.6z"/></g></g>
</svg>